<?xml version="1.0" standalone="no"?>
<!DOCTYPE svg PUBLIC "-//W3C//DTD SVG 20010904//EN"
 "http://www.w3.org/TR/2001/REC-SVG-20010904/DTD/svg10.dtd">
<svg version="1.0" xmlns="http://www.w3.org/2000/svg"
 width="700.000000pt" height="700.000000pt" viewBox="0 0 700.000000 700.000000"
 preserveAspectRatio="xMidYMid meet">
<metadata>
Created by potrace 1.11, written by Peter Selinger 2001-2013
</metadata>
<g transform="translate(0.000000,700.000000) scale(0.100000,-0.100000)"
fill="#000000" stroke="none">
<path d="M3767 6994 c-1 -1 -20 -5 -42 -8 -22 -3 -76 -13 -120 -21 -44 -8 -96
-17 -115 -20 -31 -5 -145 -25 -225 -40 -16 -3 -46 -8 -65 -11 -19 -3 -111 -19
-205 -35 -93 -16 -222 -39 -285 -49 -130 -22 -155 -27 -225 -40 -27 -5 -68
-12 -90 -15 -22 -3 -47 -7 -55 -10 -17 -5 -15 -4 -202 -35 l-138 -23 5 -28 c3
-16 7 -44 10 -61 3 -18 8 -40 10 -48 2 -8 6 -32 10 -54 l5 -39 -42 35 c-94 77
-141 109 -148 101 -4 -4 -63 -77 -131 -162 -68 -84 -175 -217 -238 -295 -127
-158 -357 -440 -383 -471 -9 -11 -76 -94 -149 -185 -73 -91 -197 -245 -276
-342 -79 -97 -143 -179 -143 -183 0 -9 16 -24 99 -88 40 -31 67 -57 60 -57 -8
1 -57 11 -109 24 -52 13 -98 21 -101 17 -3 -3 -36 -139 -73 -301 -73 -316
-190 -825 -232 -1005 -14 -60 -28 -118 -30 -128 -2 -10 -5 -26 -8 -35 -3 -9
-7 -28 -10 -42 -2 -14 -29 -132 -60 -263 -31 -131 -56 -245 -56 -253 0 -8 8
-14 18 -14 9 -1 59 -11 111 -23 l95 -23 -102 -49 c-56 -26 -102 -53 -102 -59
0 -6 18 -46 39 -91 55 -113 167 -346 211 -440 21 -44 65 -136 98 -205 33 -69
82 -172 110 -230 49 -105 125 -262 229 -480 31 -63 80 -167 110 -230 30 -63
57 -117 59 -119 4 -4 40 12 145 65 l66 33 -17 -62 c-10 -34 -24 -85 -33 -113
l-15 -52 81 -22 c45 -12 100 -28 122 -36 22 -7 103 -31 180 -53 77 -22 266
-77 420 -122 154 -45 294 -85 310 -89 17 -5 163 -47 325 -94 400 -117 940
-274 1023 -297 l67 -19 78 41 c42 23 100 54 127 69 28 15 95 51 150 80 138 73
498 266 565 302 30 17 98 53 150 81 52 27 149 79 215 115 218 118 238 129 470
252 290 154 467 250 508 276 16 9 13 19 -32 105 -28 52 -51 97 -51 100 0 4 47
-13 104 -36 71 -30 106 -40 109 -32 3 7 82 208 176 447 94 239 175 444 181
455 9 20 93 235 95 245 1 3 7 19 14 35 7 17 77 197 157 400 80 204 149 379
154 390 5 11 28 67 50 125 22 58 45 114 50 125 5 11 43 108 85 215 87 222 84
183 40 455 -8 50 -18 110 -21 135 -3 25 -8 54 -9 65 -7 40 -27 171 -36 235 -5
36 -14 90 -19 120 -5 30 -12 71 -14 90 -3 19 -8 53 -11 75 -3 22 -8 56 -11 75
-2 19 -8 58 -13 85 -6 28 -13 75 -17 105 -4 30 -8 57 -9 60 -2 8 -16 102 -21
140 -3 19 -11 73 -19 120 -8 47 -17 105 -20 130 -3 25 -10 68 -15 95 -5 28
-14 86 -20 130 -6 44 -13 91 -16 105 -11 68 -24 149 -29 190 -3 24 -7 45 -9
47 -2 2 -845 234 -906 249 -8 2 -49 13 -90 24 -41 12 -109 30 -150 41 -41 11
-237 65 -435 119 -301 82 -592 162 -860 235 -27 7 -95 26 -150 41 -164 45
-146 51 -174 -60 -14 -53 -28 -96 -33 -96 -4 0 -8 6 -9 13 0 6 -2 19 -4 27 -3
16 -9 52 -20 117 -6 33 -11 41 -27 40 -10 -1 -20 -2 -21 -3z m244 -904 c151
-231 340 -522 422 -646 81 -124 147 -231 147 -239 0 -24 -18 -26 -440 -40
-165 -5 -384 -13 -545 -20 -60 -2 -191 -7 -290 -10 -99 -4 -220 -8 -270 -10
-105 -4 -354 -13 -540 -20 -71 -3 -188 -7 -260 -10 -71 -2 -202 -7 -290 -10
-88 -3 -212 -7 -275 -10 -63 -2 -193 -7 -288 -10 l-173 -6 318 391 c175 216
389 481 476 589 112 138 167 198 185 203 22 6 241 45 357 64 17 3 57 10 90 16
33 5 74 12 90 15 17 2 89 15 160 28 72 13 148 26 170 30 22 3 47 7 55 10 8 2
31 6 50 9 35 5 191 32 240 41 43 9 203 35 245 41 22 4 42 8 44 10 2 2 14 4 26
4 19 0 72 -75 296 -420z m472 264 c51 -14 166 -46 257 -70 91 -25 188 -51 215
-59 28 -7 86 -23 130 -35 103 -28 229 -62 330 -90 44 -12 87 -24 95 -26 8 -2
74 -20 145 -39 72 -20 137 -38 145 -40 17 -4 236 -63 263 -71 9 -3 17 -9 17
-13 0 -4 -67 -125 -150 -270 -82 -145 -150 -266 -150 -268 0 -2 -16 -29 -35
-59 -19 -30 -35 -56 -35 -59 0 -2 -28 -53 -62 -112 -35 -60 -69 -120 -76 -133
-7 -14 -20 -34 -27 -44 -16 -21 -25 -19 -105 30 -19 11 -61 35 -93 53 -168 93
-135 55 -383 436 -50 77 -140 214 -200 305 -60 91 -111 169 -113 174 -2 4 -35
56 -73 115 -39 58 -91 138 -116 176 -25 39 -54 82 -64 98 -10 15 -16 27 -13
27 3 0 47 -12 98 -26z m1833 -1027 c1 -7 5 -32 9 -57 7 -50 8 -55 30 -194 8
-54 17 -113 20 -130 2 -17 6 -45 9 -62 3 -17 8 -47 10 -67 3 -20 8 -52 11 -69
4 -18 8 -44 9 -58 2 -14 7 -47 10 -75 4 -27 9 -61 12 -73 3 -13 7 -43 10 -65
3 -23 10 -61 14 -85 8 -43 8 -44 -19 -37 -87 21 -587 168 -594 174 -4 4 36 84
89 177 53 93 111 194 128 224 135 241 240 419 245 415 2 -3 6 -11 7 -18z
m-1178 -695 c89 -51 162 -96 162 -101 0 -4 -5 -12 -11 -18 -7 -7 20 -27 90
-68 56 -31 101 -63 101 -70 0 -8 -4 -25 -10 -39 -9 -23 -13 -25 -57 -21 -26 2
-115 6 -198 10 -82 3 -188 8 -235 10 -206 10 -322 16 -425 20 -166 7 -340 16
-342 19 -1 1 108 78 243 172 l246 169 77 5 c187 12 179 14 359 -88z m-1308 52
c0 -2 -85 -62 -190 -134 l-190 -131 -112 26 c-62 14 -131 30 -153 35 -22 5
-53 12 -70 16 -16 4 -37 8 -45 10 -8 2 -53 12 -100 23 -99 24 -246 57 -310 71
-25 6 -70 17 -100 24 l-55 14 75 2 c41 1 95 3 120 4 25 2 142 6 260 10 118 5
249 9 290 11 41 2 170 6 285 10 116 4 211 7 212 8 3 3 83 4 83 1z m-2815 -189
c153 -33 366 -83 370 -86 2 -2 56 -121 120 -264 64 -143 127 -283 140 -312 87
-187 235 -523 235 -532 0 -6 -3 -10 -7 -9 -7 1 -78 -10 -173 -27 -8 -2 -53
-10 -100 -19 -107 -19 -124 -22 -235 -41 -127 -22 -127 -22 -155 -29 -14 -3
-38 -7 -55 -10 -16 -2 -120 -21 -230 -41 -110 -20 -209 -38 -220 -39 -11 -2
-33 -6 -50 -9 -45 -9 -115 -18 -115 -15 0 2 5 19 10 38 6 19 17 64 25 100 8
36 26 115 40 175 14 61 41 178 60 260 19 83 72 316 119 520 48 203 86 371 86
372 0 1 15 -3 33 -8 17 -5 64 -16 102 -24z m1100 -251 c66 -14 175 -39 242
-54 67 -16 132 -31 145 -34 13 -2 95 -21 183 -41 261 -60 315 -72 415 -94 52
-12 100 -23 106 -25 8 -3 2 -41 -17 -123 -16 -65 -31 -127 -33 -138 -11 -56
-49 -210 -52 -214 -3 -3 -67 -17 -129 -28 -16 -2 -88 -15 -160 -28 -71 -13
-146 -27 -165 -30 -19 -3 -57 -10 -85 -15 -27 -5 -66 -12 -85 -15 -19 -4 -52
-10 -73 -15 -46 -10 -46 -10 -115 145 -50 112 -74 166 -119 265 -14 30 -43 96
-65 145 -21 50 -48 108 -58 130 -31 67 -90 197 -90 200 0 2 8 1 18 -1 9 -2 71
-15 137 -30z m2265 -349 c135 -7 330 -16 435 -20 211 -9 365 -16 435 -20 66
-4 214 -11 435 -20 98 -4 97 -4 91 -13 -2 -4 -63 -224 -135 -487 -72 -264
-137 -502 -145 -530 -8 -27 -36 -129 -62 -225 -25 -96 -53 -194 -60 -218 -8
-23 -14 -51 -14 -61 0 -46 -1 -45 -195 194 -49 61 -91 112 -95 115 -3 3 -21
25 -40 50 -19 25 -37 47 -40 50 -3 3 -32 39 -65 80 -33 41 -62 77 -65 80 -3 3
-96 115 -205 250 -110 135 -294 362 -410 503 -115 142 -214 265 -218 273 -9
16 -2 16 353 -1z m2026 -98 c5 -5 -48 -150 -111 -302 -7 -16 -61 -154 -120
-305 -59 -151 -114 -288 -121 -305 -7 -16 -33 -84 -59 -150 -66 -172 -88 -225
-91 -222 -2 2 5 32 15 67 11 36 56 202 101 370 45 168 85 316 90 330 5 14 39
139 76 277 l68 253 73 -4 c40 -1 76 -6 79 -9z m-2625 -345 c84 -103 165 -202
180 -221 l27 -34 -201 -233 c-111 -129 -204 -234 -207 -234 -3 0 -6 10 -6 23
-1 12 -4 67 -9 122 -4 55 -9 120 -10 145 -4 42 -14 167 -20 235 -2 26 4 69 20
135 2 8 17 70 32 137 15 66 31 119 35 117 3 -2 75 -89 159 -192z m-692 -485
c1 -35 3 -73 5 -83 2 -10 7 -64 10 -119 4 -55 9 -118 11 -140 5 -49 14 -166
20 -260 3 -38 7 -95 10 -125 3 -30 7 -84 10 -120 2 -36 6 -92 9 -125 3 -33 8
-103 11 -155 3 -52 8 -106 10 -120 2 -14 6 -68 10 -120 4 -52 8 -111 10 -130
2 -19 6 -80 10 -135 4 -55 8 -117 10 -137 1 -21 1 -38 0 -38 -3 0 -436 160
-530 196 -22 8 -89 33 -150 55 -60 22 -119 44 -130 49 -11 5 -63 25 -115 44
-52 19 -158 58 -235 86 -160 59 -469 174 -533 197 -47 18 -51 22 -58 58 -5 29
-4 25 -43 245 -17 91 -33 181 -36 200 -3 19 -10 55 -15 80 -5 25 -12 59 -14
75 -3 17 -10 57 -16 90 -29 158 -30 190 -5 191 11 1 45 6 75 12 30 7 71 14 90
17 19 3 94 17 165 30 72 13 144 26 160 28 52 9 266 47 370 67 55 10 116 21
135 25 44 7 245 42 285 50 59 11 200 36 230 41 17 2 53 9 80 14 111 22 140 27
146 24 3 -2 7 -32 8 -67z m1543 -558 c150 -184 289 -355 308 -379 19 -24 52
-64 73 -89 20 -25 37 -48 37 -51 0 -4 -89 -34 -197 -69 -109 -35 -223 -71
-253 -82 -30 -10 -163 -53 -295 -95 -132 -42 -314 -100 -405 -129 -187 -60
-213 -68 -219 -67 -6 2 -8 14 -16 128 -4 54 -8 117 -10 139 -5 46 -12 146 -21
264 l-5 82 48 57 c26 31 50 59 53 62 3 3 30 34 60 70 30 36 62 72 70 82 8 9
107 125 220 257 l205 241 37 -43 c20 -23 159 -193 310 -378z m-3749 81 c3 -14
12 -65 21 -115 9 -49 18 -101 21 -115 3 -14 8 -38 10 -55 8 -46 24 -136 30
-174 4 -25 2 -32 -7 -29 -7 3 -37 13 -67 24 l-55 19 -63 133 c-35 72 -92 193
-128 269 -36 75 -63 138 -61 140 2 2 64 14 137 27 l134 23 12 -61 c6 -34 14
-72 16 -86z m5014 -12 c-3 -8 -6 -5 -6 6 -1 11 2 17 5 13 3 -3 4 -12 1 -19z
m-577 -1003 c0 -2 -17 -13 -37 -23 -21 -10 -132 -69 -248 -132 -115 -62 -244
-131 -285 -153 -41 -22 -97 -52 -125 -67 -62 -33 -154 -83 -355 -190 -85 -45
-182 -97 -215 -115 -33 -18 -100 -54 -150 -80 -49 -26 -105 -57 -123 -68 -18
-10 -35 -17 -38 -14 -8 8 -12 38 -18 154 -4 61 -9 122 -11 135 -3 13 -1 28 3
35 4 6 66 30 137 53 72 22 191 61 265 85 327 105 458 147 655 210 185 59 502
160 530 170 6 2 11 4 13 4 1 1 2 -1 2 -4z m-3840 -167 c477 -177 1082 -402
1410 -523 414 -153 380 -137 380 -180 0 -32 -2 -36 -21 -30 -31 10 -151 46
-174 52 -11 3 -78 22 -150 43 -71 21 -139 40 -150 43 -11 3 -114 33 -230 67
-246 72 -670 196 -735 214 -25 7 -158 45 -296 85 l-252 74 -63 134 c-35 74
-66 139 -67 144 -2 5 9 4 25 -2 15 -6 161 -60 323 -121z"/>
</g>
</svg>
